<?xml version="1.0" standalone="no"?>
<!DOCTYPE svg PUBLIC "-//W3C//DTD SVG 20010904//EN"
 "http://www.w3.org/TR/2001/REC-SVG-20010904/DTD/svg10.dtd">
<svg version="1.0" xmlns="http://www.w3.org/2000/svg"
 width="720.000000pt" height="1280.000000pt" viewBox="0 0 720.000000 1280.000000"
 preserveAspectRatio="xMidYMid meet">

<g transform="translate(0.000000,1280.000000) scale(0.100000,-0.100000)"
fill="#000000" stroke="none">
<path d="M1040 12760 c27 -24 52 -39 63 -36 11 3 17 -2 18 -12 0 -10 3 -12 5
-6 4 11 74 -50 74 -64 0 -9 64 -52 77 -52 6 0 16 -6 22 -14 10 -11 8 -15 -6
-18 -12 -3 -2 -9 26 -18 24 -8 47 -22 51 -30 25 -51 50 -130 50 -158 0 -29 -3
-32 -30 -32 -29 0 -30 -2 -30 -46 0 -34 -7 -54 -26 -80 -15 -19 -33 -34 -40
-34 -21 0 -17 -18 6 -25 20 -6 28 -25 12 -25 -36 0 -82 -85 -82 -150 0 -29 -4
-40 -15 -40 -9 0 -15 9 -15 23 l-1 22 -17 -24 c-9 -13 -26 -33 -37 -46 -26
-29 -45 -62 -45 -77 0 -7 -11 -25 -25 -40 -14 -15 -25 -37 -25 -48 0 -12 -4
-18 -10 -15 -5 3 -21 -12 -35 -35 -28 -44 -45 -51 -45 -20 0 11 -4 20 -9 20
-18 0 -72 -63 -67 -77 3 -8 2 -12 -3 -9 -4 3 -20 -19 -35 -49 -14 -30 -31 -57
-36 -60 -16 -10 -12 -45 6 -45 14 0 15 -2 3 -17 -13 -15 -14 -15 -17 0 -2 10
-13 17 -28 17 -21 0 -24 -4 -24 -40 0 -22 -4 -40 -10 -40 -5 0 -10 -18 -10
-40 0 -38 -2 -40 -30 -40 -28 0 -30 -2 -30 -40 0 -33 -4 -40 -19 -40 -26 0
-96 -70 -92 -93 2 -16 -4 -18 -44 -16 -37 3 -50 -1 -61 -16 -8 -11 -12 -25
-10 -31 2 -6 -3 -11 -12 -10 -9 0 -21 -9 -27 -21 -5 -13 -17 -23 -26 -23 -24
0 -59 -35 -59 -59 0 -18 -6 -21 -39 -21 -22 0 -44 -6 -51 -15 -7 -8 -23 -15
-37 -15 -13 0 -26 -7 -30 -17 -3 -10 -13 -26 -21 -36 -9 -10 -18 -37 -21 -60
l-6 -42 -58 -3 -57 -3 0 -2403 0 -2403 38 -16 c84 -36 110 -40 180 -27 120 21
175 47 256 118 21 19 62 45 91 58 52 24 54 24 223 15 l171 -10 83 50 c113 67
231 122 303 142 33 9 123 23 200 33 102 12 143 21 151 33 38 53 114 110 114
86 0 -12 -34 -65 -41 -65 -7 0 -13 -22 -24 -82 -3 -14 0 -39 6 -55 13 -31 12
-72 -2 -89 -5 -6 -6 -14 -2 -17 3 -4 -1 -7 -10 -7 -8 0 -17 6 -20 13 -2 6 -8
9 -12 5 -5 -4 4 -19 19 -33 27 -25 27 -45 1 -45 -8 0 -26 -12 -40 -26 -23 -22
-25 -30 -16 -48 6 -12 12 -37 13 -56 1 -19 7 -38 13 -42 6 -5 6 -8 -2 -8 -7 0
-13 -7 -13 -15 0 -8 5 -15 11 -15 6 0 9 -5 7 -11 -2 -6 -7 -10 -12 -9 -14 3
-26 -24 -14 -31 14 -9 16 -88 2 -82 -10 4 -12 -27 -5 -69 1 -3 11 -4 24 -1 20
5 20 4 5 -8 -20 -17 -31 -69 -19 -88 6 -9 11 -10 15 -2 4 6 2 11 -4 11 -6 0
-8 5 -5 10 9 15 34 12 31 -3 -1 -7 -12 -26 -24 -41 -12 -16 -22 -33 -22 -37 0
-5 -7 -9 -15 -9 -8 0 -15 5 -15 10 0 6 -4 10 -10 10 -5 0 -10 -9 -10 -20 0
-11 4 -20 10 -20 18 0 58 -53 52 -69 -5 -14 -4 -14 12 -1 11 8 14 16 7 18 -16
5 -14 22 3 22 8 0 17 6 20 13 3 6 3 2 0 -10 -3 -14 -1 -23 7 -23 11 0 -39 -44
-51 -45 -3 -1 -15 -4 -27 -9 -13 -4 -29 -3 -38 1 -13 8 -13 12 5 31 12 12 17
22 12 22 -6 0 -13 10 -16 23 -6 22 -7 22 -22 -6 -24 -44 -15 -88 23 -112 18
-11 32 -25 33 -32 0 -16 31 -32 50 -26 9 3 8 0 -3 -7 -11 -7 -16 -18 -12 -29
3 -12 -3 -22 -20 -31 -25 -13 -34 -30 -16 -30 5 0 7 -10 3 -22 -5 -20 -2 -21
34 -15 36 6 37 5 20 -8 -11 -8 -25 -15 -30 -15 -6 0 -2 -8 9 -16 20 -16 19
-16 -4 -9 -23 7 -24 6 -17 -34 4 -26 2 -48 -6 -62 -11 -17 -10 -22 5 -33 9 -7
17 -18 17 -24 0 -6 5 -12 11 -14 7 -2 12 -33 14 -72 1 -44 7 -71 16 -76 11 -7
11 -13 0 -33 -14 -26 -8 -47 12 -47 8 0 13 -16 13 -40 1 -22 -2 -40 -7 -40
-16 0 -10 -32 9 -46 15 -12 15 -15 2 -24 -10 -6 -11 -10 -2 -10 6 0 12 -6 12
-14 0 -8 6 -16 13 -19 9 -3 9 -9 -1 -26 -7 -11 -9 -21 -5 -21 10 0 10 -66 1
-76 -5 -4 -8 2 -8 13 0 11 -7 37 -15 56 -8 20 -15 54 -15 75 0 22 -6 45 -14
51 -8 6 -17 28 -20 49 -4 20 -9 53 -13 72 -3 19 -8 37 -12 40 -10 8 -71 189
-83 244 -5 28 -18 61 -29 74 -10 14 -19 35 -19 48 0 13 -9 33 -19 43 -10 10
-22 30 -26 43 -4 12 -21 39 -39 58 -43 49 -58 78 -51 101 5 14 1 25 -11 33
-10 7 -23 33 -31 57 -16 56 -16 59 2 59 8 0 15 9 15 21 0 16 -4 19 -20 14 -14
-4 -20 -2 -20 8 0 8 -6 20 -14 26 -7 6 -11 22 -8 36 2 14 -1 31 -7 39 -7 8
-13 29 -15 48 -1 18 -8 43 -15 56 -6 12 -8 22 -4 22 4 0 -1 6 -10 13 -16 11
-27 65 -31 147 -1 28 -5 36 -23 38 -18 3 -24 -4 -32 -35 -6 -21 -11 -44 -11
-50 0 -7 -4 -13 -9 -13 -6 0 -10 -30 -10 -67 0 -38 0 -88 -1 -113 0 -25 2 -72
4 -105 3 -33 7 -149 10 -257 3 -188 3 -198 -15 -198 -11 0 -19 -4 -19 -10 0
-5 7 -10 16 -10 17 0 16 -12 -11 -175 -8 -49 -10 -84 -4 -91 5 -6 6 -14 2 -18
-4 -3 -8 -39 -11 -79 -2 -39 -10 -91 -18 -115 -8 -23 -14 -64 -14 -90 0 -26
-9 -79 -19 -117 -11 -39 -19 -77 -18 -85 4 -45 -18 -155 -43 -215 -5 -11 -8
-36 -8 -55 1 -19 -4 -45 -11 -58 -6 -12 -9 -27 -6 -32 3 -5 1 -11 -3 -14 -5
-3 -9 -21 -10 -40 -1 -20 -8 -48 -16 -64 -8 -15 -17 -49 -21 -75 -4 -26 -11
-47 -16 -47 -5 0 -7 10 -5 23 21 99 26 129 31 177 3 30 10 75 16 100 25 121
56 466 65 725 1 44 3 87 4 95 1 25 -8 114 -13 130 -9 26 -19 84 -20 125 -2 28
-7 41 -19 43 -13 3 -15 12 -11 53 4 44 3 49 -15 49 -15 0 -21 8 -24 38 -3 21
0 40 6 45 8 5 7 10 -3 16 -8 5 -17 29 -21 52 -5 24 -17 68 -28 97 -18 46 -19
60 -10 122 8 54 8 74 -2 85 -7 8 -14 33 -15 55 -2 23 -8 47 -14 53 -5 7 -14
40 -20 72 -6 33 -12 70 -15 83 -3 13 0 22 8 22 14 0 116 48 116 55 0 2 -20 2
-45 -2 -38 -5 -55 -1 -99 21 -61 31 -144 44 -172 27 -17 -10 -16 -11 7 -5 30
6 82 -16 114 -49 16 -18 17 -20 2 -14 -14 5 -17 1 -17 -23 0 -17 -4 -30 -10
-30 -5 0 -7 -6 -4 -13 3 -8 -2 -20 -11 -27 -8 -7 -15 -18 -15 -24 0 -7 -5 -17
-12 -24 -12 -12 -13 -14 -27 -109 -5 -33 -12 -66 -16 -72 -4 -7 -2 -18 5 -26
8 -10 8 -19 1 -34 -6 -11 -11 -31 -11 -44 0 -14 -7 -28 -16 -31 -10 -4 -14
-14 -11 -26 3 -11 1 -22 -4 -25 -4 -3 -8 -18 -8 -33 1 -27 -1 -36 -21 -142
-22 -111 -30 -177 -34 -259 -2 -55 -8 -86 -17 -92 -11 -6 -10 -12 5 -28 12
-13 16 -27 11 -42 -4 -13 -9 -100 -11 -193 -1 -94 -6 -209 -9 -256 -3 -47 -7
-134 -8 -195 -2 -60 -6 -115 -9 -120 -14 -23 -20 -85 -8 -85 8 0 10 -7 5 -17
-7 -19 -37 -203 -38 -238 0 -11 -4 -23 -9 -26 -4 -3 -10 -31 -13 -63 -2 -31
-13 -82 -25 -112 -11 -30 -20 -68 -20 -84 0 -16 -4 -31 -9 -34 -4 -3 -14 -40
-21 -83 -7 -43 -21 -90 -31 -105 -10 -15 -19 -43 -19 -61 0 -19 -7 -40 -15
-47 -8 -7 -15 -9 -15 -4 0 14 36 205 64 345 21 106 43 246 51 335 1 11 4 24 6
30 9 17 14 205 12 439 -3 325 -4 345 -12 345 -4 0 -5 16 -3 36 3 20 1 39 -4
43 -28 20 -44 84 -24 96 16 10 11 25 -9 25 -15 0 -19 10 -25 53 -14 116 -19
142 -27 147 -4 3 -14 59 -20 123 -9 89 -9 127 0 156 17 57 15 121 -4 121 -9 0
-15 7 -13 16 2 10 -3 19 -9 21 -8 3 -13 -4 -13 -16 0 -14 -6 -21 -20 -21 -27
0 -100 -49 -100 -66 0 -8 -7 -14 -15 -14 -19 0 -85 -32 -85 -41 0 -3 14 -12
31 -19 17 -7 26 -16 21 -19 -13 -9 -42 -67 -42 -86 0 -9 -7 -18 -15 -21 -13
-5 -15 -302 -15 -2590 l0 -2584 3600 0 3600 0 0 3340 c0 3061 -1 3340 -16
3340 -11 0 -14 5 -10 16 3 9 6 18 6 20 0 3 4 2 10 -1 7 -4 10 1024 10 3039 l0
3046 -3102 0 -3103 0 45 -40z m1940 -214 c0 -3 -4 -8 -10 -11 -5 -3 -10 -1
-10 4 0 6 5 11 10 11 6 0 10 -2 10 -4z m580 -285 c0 -6 -4 -13 -10 -16 -5 -3
-10 1 -10 9 0 9 5 16 10 16 6 0 10 -4 10 -9z m-1687 -660 c-14 -9 -25 -78 -14
-85 5 -4 21 -2 35 4 32 12 35 -7 9 -48 -43 -65 -53 -72 -107 -68 -49 3 -51 4
-48 31 2 16 15 43 29 59 13 17 38 53 54 79 17 28 34 45 40 41 7 -4 7 -9 2 -13z
m343 -192 c7 -11 -32 -57 -41 -48 -6 7 17 59 27 59 4 0 10 -5 14 -11z m-466
-88 c0 -31 -6 -44 -26 -60 -31 -24 -74 -28 -74 -7 0 8 12 28 26 45 14 17 23
31 19 31 -3 0 -3 5 0 11 5 6 12 4 21 -8 13 -17 13 -17 14 5 0 12 5 22 10 22 6
0 10 -18 10 -39z m180 24 c0 -9 -44 -45 -54 -45 -6 0 2 12 17 25 28 24 37 30
37 20z m187 -42 c-9 -9 -19 -14 -23 -11 -10 10 6 28 24 28 15 0 15 -1 -1 -17z
m-134 -10 c-7 -2 -19 -2 -25 0 -7 3 -2 5 12 5 14 0 19 -2 13 -5z m-113 -52 c0
-6 -5 -13 -10 -16 -8 -5 -7 -11 1 -21 9 -11 8 -14 -4 -14 -9 0 -28 -16 -42
-35 -15 -19 -35 -37 -46 -40 -10 -4 -19 -12 -19 -20 0 -22 -55 -55 -90 -55
-19 0 -38 -7 -45 -16 -11 -15 -14 -15 -37 0 -13 9 -27 13 -31 10 -8 -8 -47 6
-47 17 0 6 23 7 60 3 51 -6 60 -4 60 9 0 9 8 21 18 26 14 9 15 12 3 20 -18 12
-5 31 21 31 12 0 36 16 54 36 18 20 37 33 42 30 4 -2 21 6 38 19 29 24 74 33
74 16z m430 -31 c0 -5 -7 -10 -16 -10 -8 0 -12 5 -9 10 3 6 10 10 16 10 5 0 9
-4 9 -10z m-200 -30 c0 -5 -10 -10 -22 -10 -19 0 -20 2 -8 10 19 13 30 13 30
0z m-263 -66 c-3 -3 -12 -4 -19 -1 -8 3 -5 6 6 6 11 1 17 -2 13 -5z m443 -25
c0 -6 -21 -7 -50 -3 -50 7 -61 -1 -38 -24 7 -7 8 -12 2 -12 -6 0 -19 9 -28 19
-17 19 -17 20 21 26 21 3 45 7 53 9 21 3 40 -4 40 -15z m-685 1 c-3 -5 -13
-10 -21 -10 -8 0 -14 5 -14 10 0 6 9 10 21 10 11 0 17 -4 14 -10z m362 -16
c-3 -3 -12 -4 -19 -1 -8 3 -5 6 6 6 11 1 17 -2 13 -5z m141 -62 c17 -10 21
-17 13 -26 -7 -9 -7 -16 1 -24 14 -14 7 -23 -21 -25 -12 -1 -19 -7 -17 -13 6
-16 -63 -24 -89 -11 -11 5 -32 20 -47 33 -21 17 -24 23 -13 28 9 3 12 12 8 22
-5 13 -2 15 15 10 68 -19 64 -20 59 12 l-5 29 37 -11 c20 -6 46 -17 59 -24z
m-354 -18 c27 -10 18 -21 -14 -16 -16 2 -27 8 -24 13 6 11 16 11 38 3z m36
-59 c43 -13 44 -13 20 -23 -25 -10 -25 -10 17 -29 42 -20 47 -33 11 -33 -19 0
-59 19 -69 34 -6 8 -31 6 -114 -10 -24 -4 -37 0 -62 23 l-31 28 77 16 c42 9
83 14 91 11 8 -3 35 -11 60 -17z m-350 -100 c14 -19 14 -19 -2 -6 -10 7 -18
18 -18 24 0 6 1 8 3 6 1 -2 9 -13 17 -24z m-260 -205 c0 -5 -4 -10 -10 -10 -5
0 -10 5 -10 10 0 6 5 10 10 10 6 0 10 -4 10 -10z m1210 -30 c0 -22 5 -40 10
-40 19 0 10 -18 -12 -23 -13 -2 -30 -7 -38 -11 -12 -5 -19 4 -28 39 -16 61
-16 63 13 57 15 -2 25 0 25 7 0 6 7 11 15 11 11 0 15 -11 15 -40z m-1125 21
c3 -5 1 -12 -5 -16 -5 -3 -10 1 -10 9 0 18 6 21 15 7z m1005 -57 c0 -2 -9 -4
-21 -4 -11 0 -18 4 -14 10 5 8 35 3 35 -6z m7 -34 c34 0 93 -37 93 -59 0 -10
9 -26 20 -36 14 -13 17 -22 10 -29 -14 -14 -13 -82 2 -123 10 -28 10 -36 -1
-43 -12 -7 -12 -10 0 -22 8 -8 20 -13 28 -10 11 4 13 -3 8 -30 -6 -42 7 -71
23 -48 6 8 13 27 17 43 5 25 7 26 19 10 7 -10 14 -28 14 -40 0 -25 15 -31 23
-10 3 6 8 -3 12 -20 4 -18 12 -33 18 -33 6 0 8 -29 4 -80 -3 -44 -2 -80 2 -80
3 0 5 -18 3 -40 -3 -24 -9 -40 -17 -40 -7 0 -18 -7 -25 -15 -22 -27 -40 -18
-40 20 0 33 -8 43 -23 28 -4 -3 -2 -12 4 -20 9 -10 4 -13 -25 -13 -20 0 -36
-4 -36 -9 0 -5 -13 -22 -28 -38 -16 -15 -31 -35 -35 -43 -5 -13 -7 -13 -16 0
-8 12 -11 11 -16 -5 -17 -50 -29 -65 -54 -65 -20 0 -32 -10 -51 -40 -14 -22
-28 -40 -32 -40 -5 0 -8 -8 -8 -19 0 -10 -7 -24 -15 -31 -8 -7 -15 -20 -15
-29 0 -17 -37 -59 -53 -60 -4 0 -20 -10 -36 -22 -16 -12 -31 -20 -33 -18 -2 2
-19 -8 -37 -23 -18 -16 -41 -28 -51 -28 -10 0 -22 -4 -25 -10 -3 -5 1 -10 10
-10 9 0 13 -5 9 -11 -3 -6 -17 -8 -30 -5 -16 4 -24 2 -24 -6 0 -7 -11 -24 -25
-38 -76 -77 -79 -83 -91 -162 -13 -93 2 -171 39 -203 13 -11 27 -28 30 -37 4
-10 11 -18 17 -18 5 0 10 -16 10 -35 0 -19 -4 -35 -10 -35 -5 0 -10 -11 -10
-25 0 -14 4 -25 9 -25 5 0 11 -9 14 -20 3 -11 17 -24 32 -30 28 -11 29 -16 10
-77 -6 -19 -4 -23 14 -23 24 0 28 -15 7 -23 -9 -3 -12 -15 -9 -31 4 -17 1 -26
-7 -26 -7 0 -10 8 -7 20 7 28 -12 25 -39 -7 -17 -19 -21 -34 -17 -55 8 -40
-63 -185 -94 -193 -12 -3 -28 -15 -34 -26 -9 -18 -13 -19 -21 -8 -7 11 -11 11
-15 2 -2 -7 -11 -13 -19 -13 -8 0 -14 -9 -14 -19 0 -11 -13 -33 -30 -49 -30
-30 -46 -90 -41 -152 5 -70 3 -94 -7 -98 -16 -5 -15 -31 1 -62 13 -25 12 -180
-2 -180 -21 0 15 -343 40 -375 4 -6 10 -55 12 -110 2 -55 8 -113 12 -128 5
-20 3 -33 -10 -47 -15 -17 -16 -24 -6 -47 10 -22 9 -29 -3 -41 -23 -23 -48 1
-35 34 12 34 -5 64 -37 64 -18 0 -23 4 -17 12 4 7 7 31 8 54 0 32 -3 40 -14
36 -10 -4 -13 -1 -8 11 3 9 2 17 -3 17 -6 0 -10 9 -10 19 0 11 -5 21 -11 23
-6 2 -13 28 -15 58 -6 98 -14 173 -19 181 -3 4 -1 10 4 13 7 5 7 67 0 246 -1
8 2 52 6 98 6 58 5 82 -3 82 -8 0 -9 8 -1 27 6 15 9 60 8 99 -1 39 1 76 4 82
4 5 6 27 6 48 -2 38 5 105 18 174 4 19 6 71 5 115 -5 200 -3 252 11 295 25 77
39 176 32 229 -8 60 3 83 54 116 l39 24 8 148 c10 164 10 166 0 273 -7 77 -11
238 -8 346 2 59 22 104 58 126 6 4 24 47 39 95 16 48 35 96 43 105 20 23 42
11 42 -23 0 -19 5 -29 15 -29 11 0 12 5 5 26 -6 14 -10 32 -10 40 0 21 18 17
25 -6 5 -17 10 -18 27 -9 11 6 28 9 39 6 22 -6 59 50 68 103 4 23 14 38 29 45
12 5 22 15 22 21 0 18 85 104 103 104 9 0 19 5 22 10 3 6 0 10 -7 10 -8 0 -7
6 5 17 14 15 21 15 37 5 29 -18 40 -15 40 11 0 26 12 45 18 28 2 -6 15 -11 29
-11z m-2168 -570 c0 -30 -4 -64 -8 -75 -7 -16 -9 -14 -14 14 -9 42 -9 104 -1
126 12 29 24 -5 23 -65z m-42 -52 c-2 -24 -4 -7 -4 37 0 44 2 63 4 43 2 -21 2
-57 0 -80z m2530 -894 c-3 -3 -12 -4 -19 -1 -8 3 -5 6 6 6 11 1 17 -2 13 -5z
m-177 -24 c0 -5 -5 -10 -11 -10 -5 0 -7 5 -4 10 3 6 8 10 11 10 2 0 4 -4 4
-10z m-10 -30 c0 -5 -5 -10 -11 -10 -5 0 -7 5 -4 10 3 6 8 10 11 10 2 0 4 -4
4 -10z m-182 -103 c3 -31 -1 -39 -19 -45 -39 -15 -93 -9 -97 10 -4 21 28 67
46 68 6 0 12 4 12 9 0 5 12 6 28 2 22 -6 28 -14 30 -44z m2202 -37 c0 -5 -5
-10 -11 -10 -5 0 -7 5 -4 10 3 6 8 10 11 10 2 0 4 -4 4 -10z m1248 -173 c2
-10 -3 -17 -13 -17 -9 0 -13 5 -10 10 3 6 1 10 -4 10 -6 0 -11 5 -11 11 0 17
34 5 38 -14z m-1321 -53 c-3 -3 -12 -4 -19 -1 -8 3 -5 6 6 6 11 1 17 -2 13 -5z
m-1226 -280 c38 -23 41 -28 35 -57 -4 -17 -1 -56 6 -85 9 -42 9 -58 -1 -73
-11 -19 -10 -20 26 -14 28 5 34 4 23 -4 -11 -8 -4 -9 25 -4 39 6 39 5 24 -13
-9 -10 -20 -29 -24 -42 -5 -19 -13 -23 -38 -20 -30 3 -32 6 -29 36 2 36 -14
41 -30 9 -4 -9 -12 -25 -16 -34 -20 -40 -86 -72 -168 -80 -122 -13 -135 -4
-93 63 14 24 32 37 62 45 58 17 67 32 67 108 0 91 10 141 27 141 7 0 16 7 19
15 4 8 12 15 20 15 8 0 14 5 14 10 0 15 6 13 51 -16z m257 -226 c16 -16 15
-85 0 -90 -24 -9 -37 3 -44 38 -10 56 13 83 44 52z m3052 -728 c-8 -5 -24 -10
-35 -10 -17 0 -17 2 -5 10 8 5 24 10 35 10 17 0 17 -2 5 -10z m-3282 -84 c8
-9 0 -13 -40 -20 -29 -5 -38 -4 -38 7 0 7 3 16 6 20 7 7 63 1 72 -7z m-99 -25
c16 -10 4 -18 -28 -17 -32 1 -41 26 -9 26 13 0 29 -4 37 -9z m329 -58 c-10 -2
-26 -2 -35 0 -10 3 -2 5 17 5 19 0 27 -2 18 -5z m3600 -215 c-2 -6 -10 -14
-16 -16 -7 -2 -10 2 -6 12 7 18 28 22 22 4z m-268 -18 c0 -5 -2 -10 -4 -10 -3
0 -8 5 -11 10 -3 6 -1 10 4 10 6 0 11 -4 11 -10z m30 0 c0 -5 -4 -10 -10 -10
-5 0 -10 5 -10 10 0 6 5 10 10 10 6 0 10 -4 10 -10z m-3610 -8 c0 -13 -12 -22
-22 -16 -10 6 -1 24 13 24 5 0 9 -4 9 -8z m3960 -2 c0 -5 -4 -10 -10 -10 -5 0
-10 5 -10 10 0 6 5 10 10 10 6 0 10 -4 10 -10z m-369 -35 c-1 -15 -24 -12 -29
3 -3 9 2 13 12 10 10 -1 17 -7 17 -13z m376 -11 c-3 -3 -12 -4 -19 -1 -8 3 -5
6 6 6 11 1 17 -2 13 -5z m49 -101 c-9 -100 -16 -133 -28 -133 -10 0 -7 58 8
163 11 79 28 56 20 -30z m-79 -96 c-8 -7 -18 -29 -21 -50 -6 -29 -11 -37 -22
-33 -9 3 -22 6 -30 6 -9 0 -12 5 -9 10 4 6 16 10 28 8 17 -2 23 3 25 25 3 22
-1 27 -17 27 -12 0 -21 5 -21 11 0 6 9 9 20 6 15 -4 26 2 38 21 l17 26 3 -23
c2 -12 -3 -28 -11 -34z m-156 -15 c7 1 27 0 42 0 24 -2 27 -5 23 -29 -2 -16
-5 -36 -5 -47 -1 -14 -4 -16 -15 -7 -7 6 -34 13 -60 15 -40 4 -46 2 -46 -15 0
-10 -4 -19 -10 -19 -5 0 -10 11 -10 25 0 15 6 25 14 25 8 0 16 17 20 43 6 36
9 40 20 25 6 -9 19 -16 27 -16z m166 -34 c-3 -7 -5 -2 -5 12 0 14 2 19 5 13 2
-7 2 -19 0 -25z m40 -58 c-7 -17 -13 -26 -15 -21 -3 10 15 51 22 51 3 0 -1
-14 -7 -30z m-427 -10 c0 -5 -4 -10 -10 -10 -5 0 -10 5 -10 10 0 6 5 10 10 10
6 0 10 -4 10 -10z m220 0 c0 -5 -7 -10 -15 -10 -8 0 -15 5 -15 10 0 6 7 10 15
10 8 0 15 -4 15 -10z m-23 -34 c3 -3 0 -21 -7 -40 -13 -41 -32 -39 -28 2 2 19
-2 27 -12 27 -17 0 -31 15 -24 26 4 7 61 -5 71 -15z m273 -25 c0 -6 -4 -13
-10 -16 -5 -3 -10 1 -10 9 0 9 5 16 10 16 6 0 10 -4 10 -9z m-130 -21 c0 -5
-2 -10 -4 -10 -3 0 -8 5 -11 10 -3 6 -1 10 4 10 6 0 11 -4 11 -10z m-39 -53
c-8 -8 -11 -7 -11 4 0 9 3 19 7 23 4 4 9 2 11 -4 3 -7 -1 -17 -7 -23z m-144
-63 c-7 -7 -37 7 -37 18 0 5 4 7 9 3 5 -3 13 0 18 7 5 10 8 8 11 -5 2 -10 2
-21 -1 -23z m163 3 c0 -18 -2 -19 -10 -7 -13 20 -13 43 0 35 6 -3 10 -16 10
-28z m-140 -27 c0 -5 -4 -10 -9 -10 -6 0 -13 5 -16 10 -3 6 1 10 9 10 9 0 16
-4 16 -10z m-5010 -28 c0 -5 -12 -14 -26 -21 -32 -14 -54 -3 -29 16 21 14 55
18 55 5z m-15 -71 c-6 -5 -20 -12 -32 -16 -17 -5 -23 -2 -23 9 0 11 10 16 32
16 19 0 28 -4 23 -9z m134 -66 c13 -19 28 -33 34 -32 6 1 17 -11 25 -26 7 -16
20 -31 28 -34 20 -7 57 -71 51 -88 -4 -8 1 -16 11 -18 13 -4 13 -5 -3 -6 -17
-1 -21 -9 -23 -47 -2 -55 -12 -75 -24 -48 -7 15 -7 14 -3 -7 3 -18 -2 -31 -18
-44 -20 -17 -20 -20 -4 -23 18 -4 23 -27 8 -37 -12 -7 -41 33 -41 56 0 9 -7
22 -15 29 -9 7 -14 19 -11 25 2 7 -2 21 -9 32 -7 10 -16 36 -20 56 -4 20 -11
37 -15 37 -9 0 -3 107 6 122 9 14 -6 9 -23 -7 -8 -9 -12 -23 -8 -33 5 -14 4
-15 -6 -5 -10 11 -9 23 9 64 12 29 19 56 16 60 -3 5 -2 9 3 9 4 0 19 -16 32
-35z m5181 -1 c0 -8 -4 -12 -10 -9 -5 3 -10 10 -10 16 0 5 5 9 10 9 6 0 10 -7
10 -16z m-5235 -134 c3 -5 1 -10 -4 -10 -6 0 -11 5 -11 10 0 6 2 10 4 10 3 0
8 -4 11 -10z m3000 -10 c3 -5 1 -10 -4 -10 -6 0 -11 5 -11 10 0 6 2 10 4 10 3
0 8 -4 11 -10z m-3150 -60 c-10 -11 -21 -18 -23 -15 -3 3 3 12 14 20 27 20 30
18 9 -5z m3165 -34 c0 -3 -4 -8 -10 -11 -5 -3 -10 -1 -10 4 0 6 5 11 10 11 6
0 10 -2 10 -4z m415 -60 c25 -15 52 -26 60 -26 8 0 15 -4 15 -9 0 -11 -46 -8
-57 2 -3 4 -15 7 -25 7 -10 0 -18 5 -18 10 0 6 -3 9 -7 8 -5 -1 -21 4 -36 10
-16 7 -37 12 -47 12 -10 0 -22 5 -26 12 -13 20 92 1 141 -26z m184 -72 c9 -9
-53 7 -63 17 -5 5 5 4 24 -1 18 -5 35 -12 39 -16z m-569 -148 c0 -3 -4 -8 -10
-11 -5 -3 -10 -1 -10 4 0 6 5 11 10 11 6 0 10 -2 10 -4z m0 -40 c0 -3 -4 -8
-10 -11 -5 -3 -10 -1 -10 4 0 6 5 11 10 11 6 0 10 -2 10 -4z m0 -46 c0 -5 -4
-10 -9 -10 -6 0 -13 5 -16 10 -3 6 1 10 9 10 9 0 16 -4 16 -10z m-3240 -30
c13 -8 13 -10 -2 -10 -9 0 -20 5 -23 10 -8 13 5 13 25 0z m3240 -10 c0 -5 -4
-10 -10 -10 -5 0 -10 5 -10 10 0 6 5 10 10 10 6 0 10 -4 10 -10z m-2927 -15
c-3 -9 -8 -14 -10 -11 -3 3 -2 9 2 15 9 16 15 13 8 -4z m2927 -19 c0 -3 -4 -8
-10 -11 -5 -3 -10 -1 -10 4 0 6 5 11 10 11 6 0 10 -2 10 -4z m-2793 -32 c-3
-3 -12 -4 -19 -1 -8 3 -5 6 6 6 11 1 17 -2 13 -5z m2779 -21 c-10 -10 -19 5
-10 18 6 11 8 11 12 0 2 -7 1 -15 -2 -18z m1161 21 c-3 -3 -12 -4 -19 -1 -8 3
-5 6 6 6 11 1 17 -2 13 -5z m-1162 -43 c3 -5 1 -12 -5 -16 -5 -3 -10 1 -10 9
0 18 6 21 15 7z m1262 3 c-3 -3 -12 -4 -19 -1 -8 3 -5 6 6 6 11 1 17 -2 13 -5z
m-4482 -14 c-3 -5 -11 -10 -16 -10 -6 0 -7 5 -4 10 3 6 11 10 16 10 6 0 7 -4
4 -10z m4561 -8 c5 -5 29 -15 54 -22 25 -7 39 -15 33 -17 -17 -6 -113 26 -113
38 0 11 13 12 26 1z m-4036 -21 c0 -4 -7 -8 -15 -8 -8 0 -15 6 -15 13 0 8 6
11 15 8 8 -4 15 -9 15 -13z m2685 -29 c-2 -33 -21 -70 -30 -60 -4 4 -3 13 1
20 8 13 10 18 12 51 1 9 6 17 11 17 5 0 8 -13 6 -28z m1496 -7 c34 -16 34 -16
4 -10 -16 4 -34 11 -39 16 -14 13 -3 11 35 -6z m119 -36 c19 -6 41 -14 49 -16
8 -2 12 -6 9 -8 -6 -6 -138 34 -138 42 0 6 32 0 80 -18z m-4858 -51 c-7 -7
-12 -8 -12 -2 0 14 12 26 19 19 2 -3 -1 -11 -7 -17z m-22 -8 c0 -11 5 -20 11
-20 5 0 7 -4 4 -10 -7 -11 -55 31 -48 43 9 15 33 6 33 -13z m95 -20 c-3 -5
-11 -10 -16 -10 -6 0 -7 5 -4 10 3 6 11 10 16 10 6 0 7 -4 4 -10z m1505 -360
c0 -5 -2 -10 -4 -10 -3 0 -8 5 -11 10 -3 6 -1 10 4 10 6 0 11 -4 11 -10z
m-1474 -635 c-3 -11 -6 -33 -6 -50 0 -22 -3 -26 -9 -15 -12 22 -22 100 -15
112 11 17 36 -24 30 -47z m1 -107 c-3 -8 -6 -5 -6 6 -1 11 2 17 5 13 3 -3 4
-12 1 -19z m27 -61 c8 -32 0 -32 -17 2 -11 22 -12 28 -2 25 7 -3 16 -15 19
-27z m-1597 -1099 c-3 -8 -6 -5 -6 6 -1 11 2 17 5 13 3 -3 4 -12 1 -19z"/>
<path d="M1553 8813 c-1 -75 -1 -134 1 -132 10 11 47 190 44 214 -2 15 -12 34
-23 41 -20 13 -20 11 -22 -123z"/>
<path d="M1535 8639 c-4 -6 -5 -12 -2 -15 2 -3 7 2 10 11 7 17 1 20 -8 4z"/>
<path d="M6910 6670 c0 -13 28 -25 38 -16 3 4 0 11 -8 16 -20 13 -30 12 -30 0z"/>
<path d="M1950 6180 c0 -5 5 -10 10 -10 6 0 10 5 10 10 0 6 -4 10 -10 10 -5 0
-10 -4 -10 -10z"/>
<path d="M1587 6260 c-20 -4 -47 -16 -60 -28 -72 -67 -117 -117 -117 -131 0
-10 -4 -21 -9 -26 -18 -19 -43 -173 -38 -232 7 -72 17 -122 27 -128 5 -3 6
-14 3 -25 -3 -11 -1 -26 4 -33 6 -6 13 -27 17 -46 3 -19 17 -58 31 -87 14 -29
25 -59 25 -67 0 -16 24 -40 32 -32 7 8 -3 65 -13 65 -4 0 -11 17 -15 38 -4 20
-13 45 -21 54 -8 9 -16 35 -16 57 -1 23 -5 41 -9 41 -5 0 -8 13 -8 28 0 16 -3
32 -7 36 -19 18 -17 206 2 263 8 24 15 53 15 65 0 11 21 47 48 79 42 53 54 61
115 81 100 31 97 48 -6 28z"/>
<path d="M1330 6216 c-69 -21 -124 -47 -255 -123 -96 -55 -115 -68 -115 -76 0
-10 126 58 196 104 65 45 182 88 256 95 82 9 110 24 43 23 -27 0 -84 -11 -125
-23z"/>
<path d="M555 6020 c-3 -6 1 -7 9 -4 18 7 21 14 7 14 -6 0 -13 -4 -16 -10z"/>
<path d="M0 5877 c0 -26 122 -56 150 -37 11 8 8 9 -12 4 -20 -4 -40 1 -72 20
-49 29 -66 32 -66 13z"/>
<path d="M268 5853 c7 -3 16 -2 19 1 4 3 -2 6 -13 5 -11 0 -14 -3 -6 -6z"/>
<path d="M1640 5831 c0 -17 18 -21 24 -6 3 9 0 15 -9 15 -8 0 -15 -4 -15 -9z"/>
<path d="M1522 5378 c7 -19 38 -22 38 -4 0 10 -9 16 -21 16 -12 0 -19 -5 -17
-12z"/>
<path d="M1638 5193 c7 -3 16 -2 19 1 4 3 -2 6 -13 5 -11 0 -14 -3 -6 -6z"/>
<path d="M1650 4869 c0 -5 5 -7 10 -4 6 3 10 8 10 11 0 2 -4 4 -10 4 -5 0 -10
-5 -10 -11z"/>
</g>
</svg>
